<svg enable-background="new 0 0 113.387 17.86" version="1.1" viewBox="0 0 113.387 17.86" xml:space="preserve" xmlns="http://www.w3.org/2000/svg">
                            <path d="m32.361 15.206h-3.224v-1.227c-0.545 1.09-1.701 1.61-3.541 1.61-3.427 0-5.785-2.496-5.785-6.104 0-3.586 2.428-6.104 5.877-6.104 1.725 0 2.813 0.521 3.449 1.612v-1.203h3.224v11.416zm-9.124-5.742c0 1.68 1.226 2.929 2.859 2.929 1.656 0 2.859-1.227 2.859-2.906 0-1.655-1.226-2.882-2.882-2.882-1.587-1e-3 -2.836 1.249-2.836 2.859z"></path>
                            <path d="m35.787 3.791h3.223v1.203c0.387-0.683 0.682-1 1.227-1.249 0.431-0.229 1.11-0.363 1.543-0.342h0.09v3.429c-1.974 0.045-2.7 0.611-2.7 2.063v6.311h-3.381l-2e-3 -11.415z"></path>
                            <path d="M48.677,3.791h1.636v2.586h-1.636v8.829h-3.426V6.377h-1.68V3.791h1.68V0h3.426V3.791z"></path>
                            <path d="m52.763 3.791h3.223v1.203c0.84-1.158 1.703-1.591 3.132-1.591 1.203 0 2.313 0.408 3.086 1.158 0.863 0.815 1.137 1.702 1.137 3.519v7.126h-3.429v-6.22c0-0.861-0.091-1.315-0.341-1.679-0.273-0.433-0.84-0.704-1.452-0.704-0.657 0-1.271 0.296-1.61 0.794-0.25 0.362-0.316 0.637-0.316 1.431v6.378h-3.428l-2e-3 -11.415z"></path>
                            <path d="m77.702 11.643c-1.065 2.475-3.133 3.948-5.582 3.948-3.293 0-5.969-2.7-5.969-6.061 0-3.402 2.633-6.127 5.922-6.127 3.429 0 6.017 2.68 6.017 6.241 0 0.386-0.022 0.566-0.09 0.932h-8.535c0.16 1.271 1.156 2.133 2.496 2.133 0.862 0 1.362-0.228 2.09-0.908 0.065-0.067 0.112-0.09 0.158-0.158h3.493zm-3.019-3.359c-0.227-1.181-1.271-1.975-2.586-1.975s-2.271 0.727-2.563 1.975h5.149z"></path>
                            <path d="m91.41 5.561c-1.179-1.431-2.771-2.156-4.789-2.155-1.701 0-3.313 0.637-4.355 1.703-1.137 1.135-1.793 2.746-1.793 4.356 0 3.563 2.564 6.127 6.127 6.127 1.791 0 3.291-0.568 4.402-1.702 1.135-1.157 1.793-2.746 1.793-4.403 0-1.43-0.498-2.814-1.385-3.926zm-4.764 6.832c-1.566 0-2.746-1.249-2.746-2.929 0-1.589 1.226-2.859 2.746-2.859 1.496 0 2.723 1.294 2.723 2.882-1e-3 1.657-1.181 2.906-2.723 2.906z"></path>
                            <path d="m97.883 15.206h-2.465v-2.436h2.465v2.436z"></path>
                            <path d="m100.3 7.256h2.244v0.869c0.603-0.79 1.375-1.138 2.514-1.138 1.105 0 2.056 0.396 2.75 1.153 0.712 0.773 1.139 1.977 1.139 3.16 0 2.369-1.676 4.173-3.872 4.173-1.012 0-1.754-0.315-2.386-0.996v3.383h-2.389v-10.604zm2.829 2.576c-0.33 0.362-0.552 0.917-0.552 1.375 0 1.14 0.884 2.039 2.007 2.039 1.106 0 1.975-0.886 1.975-2.022 0-1.138-0.866-2.007-1.989-2.007-0.602-1e-3 -1.062 0.189-1.441 0.615z"></path>
                            <path d="M111,4.617h2.387v10.589H111V4.617z"></path>
                            <circle cx="6.239" cy="9.472" r="6.239" fill="#70B62C"></circle>
                        </svg>